<svg width="504" height="330" viewBox="0 0 504 330" fill="none" xmlns="http://www.w3.org/2000/svg">
<mask id="mask0_268_925" style="mask-type:alpha" maskUnits="userSpaceOnUse" x="0" y="0" width="504" height="330">
<rect width="504" height="330" fill="#D9D9D9"/>
</mask>
<g mask="url(#mask0_268_925)">
<g opacity="0.5" clip-path="url(#clip0_268_925)">
<path opacity="0.2" d="M284.105 157.682L301.13 203.384L280.717 194.052C279.947 193.7 279.068 193.669 278.273 193.964C277.479 194.26 276.835 194.859 276.483 195.63L270.454 208.817L244.937 197.148C244.555 196.973 244.142 196.875 243.723 196.86C243.303 196.844 242.884 196.912 242.49 197.059C242.097 197.205 241.736 197.428 241.428 197.714C241.121 198.001 240.873 198.345 240.698 198.727L227.933 226.656L212.215 184.462C211.919 183.668 211.951 182.788 212.303 182.017C212.656 181.246 213.3 180.647 214.094 180.351L279.994 155.802C280.788 155.506 281.667 155.538 282.438 155.891C283.209 156.243 283.809 156.887 284.105 157.682Z" fill="#1B52FF"/>
<path d="M278.878 152.807L212.979 177.355C211.39 177.947 210.101 179.146 209.396 180.688C208.691 182.23 208.628 183.989 209.219 185.578L229.305 239.495C229.897 241.084 231.095 242.373 232.637 243.078C234.179 243.783 235.938 243.846 237.527 243.254L303.426 218.706C305.015 218.114 306.304 216.915 307.009 215.373C307.714 213.831 307.777 212.072 307.185 210.483L287.1 156.566C286.508 154.977 285.309 153.688 283.767 152.983C282.225 152.278 280.467 152.215 278.878 152.807ZM281.109 158.798L295.441 197.27L282.045 191.149C281.281 190.799 280.456 190.604 279.617 190.574C278.778 190.543 277.941 190.679 277.154 190.972C276.368 191.265 275.646 191.71 275.031 192.282C274.417 192.854 273.921 193.541 273.572 194.305L268.873 204.583L246.261 194.246C244.719 193.541 242.961 193.478 241.373 194.07C239.785 194.661 238.496 195.86 237.791 197.401L228.234 218.306L215.21 183.346L281.109 158.798ZM231.39 226.78L243.607 200.056L284.72 218.852L235.295 237.264L231.39 226.78ZM301.195 212.715L293.193 215.696L274.692 207.238L279.391 196.96L298.597 205.743L301.195 212.715ZM260.288 185.315C259.957 184.426 259.897 183.459 260.115 182.537C260.334 181.614 260.821 180.777 261.515 180.131C262.209 179.485 263.08 179.059 264.016 178.908C264.952 178.757 265.912 178.886 266.774 179.281C267.637 179.675 268.363 180.316 268.861 181.123C269.359 181.93 269.607 182.867 269.573 183.814C269.538 184.762 269.224 185.678 268.669 186.447C268.114 187.216 267.343 187.803 266.455 188.134C265.263 188.578 263.944 188.531 262.787 188.002C261.631 187.473 260.732 186.507 260.288 185.315Z" fill="#1B52FF"/>
</g>
<g opacity="0.7" clip-path="url(#clip1_268_925)">
<path opacity="0.2" d="M220.831 113.915L232.413 129.546L223.558 128.228C223.223 128.179 222.883 128.264 222.611 128.465C222.34 128.666 222.159 128.967 222.109 129.302L221.258 135.023L210.188 133.374C210.022 133.349 209.853 133.357 209.69 133.398C209.528 133.439 209.375 133.511 209.24 133.611C209.105 133.71 208.992 133.836 208.906 133.979C208.819 134.123 208.762 134.282 208.738 134.448L206.936 146.565L196.243 132.133C196.042 131.862 195.957 131.521 196.006 131.186C196.056 130.852 196.237 130.551 196.508 130.35L219.048 113.649C219.319 113.448 219.66 113.363 219.994 113.412C220.329 113.462 220.63 113.643 220.831 113.915Z" fill="#1B52FF"/>
<path d="M218.289 112.625L195.749 129.325C195.206 129.728 194.845 130.33 194.745 130.999C194.646 131.668 194.816 132.349 195.218 132.892L208.883 151.334C209.285 151.877 209.887 152.238 210.556 152.338C211.225 152.437 211.906 152.267 212.45 151.864L234.989 135.164C235.532 134.761 235.894 134.159 235.993 133.49C236.093 132.821 235.922 132.14 235.52 131.597L221.856 113.155C221.453 112.612 220.851 112.251 220.182 112.151C219.513 112.052 218.832 112.222 218.289 112.625ZM219.807 114.674L229.557 127.832L223.745 126.969C223.414 126.919 223.076 126.936 222.751 127.017C222.426 127.098 222.12 127.243 221.851 127.442C221.582 127.641 221.355 127.892 221.183 128.179C221.01 128.466 220.896 128.785 220.847 129.116L220.184 133.575L210.374 132.115C209.705 132.016 209.024 132.186 208.481 132.589C207.938 132.991 207.577 133.593 207.477 134.262L206.127 143.332L197.268 131.374L219.807 114.674ZM208.275 146.23L210 134.636L227.836 137.29L210.932 149.815L208.275 146.23ZM233.471 133.115L230.734 135.143L222.708 133.948L223.371 129.489L231.704 130.73L233.471 133.115ZM214.761 127.141C214.536 126.837 214.406 126.473 214.388 126.095C214.369 125.717 214.463 125.342 214.658 125.018C214.853 124.693 215.139 124.434 215.481 124.272C215.823 124.111 216.205 124.054 216.58 124.11C216.954 124.166 217.303 124.331 217.583 124.585C217.863 124.839 218.062 125.171 218.154 125.538C218.245 125.905 218.226 126.291 218.099 126.647C217.971 127.003 217.741 127.313 217.437 127.539C217.029 127.841 216.518 127.968 216.017 127.894C215.515 127.819 215.063 127.548 214.761 127.141Z" fill="#1B52FF"/>
</g>
<circle opacity="0.3" cx="380.812" cy="56.6836" r="36.0907" transform="rotate(171.067 380.812 56.6836)" fill="url(#paint0_radial_268_925)"/>
<circle opacity="0.3" cx="420.258" cy="299.732" r="18.6993" transform="rotate(171.067 420.258 299.732)" fill="url(#paint1_radial_268_925)"/>
<circle opacity="0.5" cx="269.037" cy="22.9164" r="11.0057" transform="rotate(171.067 269.037 22.9164)" fill="url(#paint2_radial_268_925)"/>
<circle opacity="0.5" cx="269.961" cy="298.336" r="12.9478" transform="rotate(171.067 269.961 298.336)" fill="url(#paint3_radial_268_925)"/>
<circle opacity="0.1" cx="422.029" cy="46.4296" r="20.2482" transform="rotate(171.067 422.029 46.4296)" fill="url(#paint4_radial_268_925)"/>
<circle opacity="0.3" cx="27.5185" cy="27.5185" r="27.5185" transform="matrix(-0.987872 -0.155271 -0.155271 0.987872 166.263 61.5778)" fill="url(#paint5_radial_268_925)"/>
<circle opacity="0.5" cx="8.39162" cy="8.39162" r="8.39162" transform="matrix(-0.987872 -0.155271 -0.155271 0.987872 59.1721 103.25)" fill="url(#paint6_radial_268_925)"/>
<circle opacity="0.1" cx="15.4389" cy="15.4389" r="15.4389" transform="matrix(-0.987872 -0.155271 -0.155271 0.987872 183.882 79.4538)" fill="url(#paint7_radial_268_925)"/>
<g opacity="0.5">
<path opacity="0.2" d="M314.817 102.729L270.706 89.7759C270.175 89.6197 269.607 89.667 269.128 89.9074C268.649 90.1478 268.298 90.5615 268.152 91.0576L260.462 117.245C260.316 117.742 260.388 118.279 260.661 118.741C260.934 119.202 261.386 119.549 261.918 119.705L306.029 132.658C306.56 132.814 307.128 132.767 307.607 132.527C308.086 132.286 308.437 131.873 308.583 131.377L316.273 105.189C316.419 104.693 316.347 104.155 316.074 103.694C315.801 103.232 315.349 102.886 314.817 102.729ZM282.16 117.522L286.555 102.557L296.388 113.572L282.16 117.522Z" fill="#1B52FF"/>
<path d="M297.958 112.342L288.125 101.327C287.878 101.05 287.559 100.839 287.201 100.716C286.843 100.593 286.46 100.563 286.093 100.629C285.726 100.695 285.388 100.854 285.117 101.09C284.845 101.326 284.649 101.63 284.55 101.968L280.155 116.933C280.055 117.272 280.056 117.633 280.157 117.978C280.258 118.324 280.456 118.64 280.729 118.894C281.002 119.148 281.341 119.33 281.708 119.42C282.076 119.51 282.458 119.505 282.816 119.406L297.043 115.456C297.368 115.366 297.662 115.201 297.898 114.975C298.133 114.749 298.304 114.47 298.395 114.162C298.485 113.853 298.493 113.526 298.416 113.209C298.34 112.891 298.183 112.593 297.958 112.342ZM285.192 114.615L287.53 106.653L292.774 112.511L285.192 114.615ZM315.367 100.859L271.256 87.9053C270.192 87.593 269.057 87.6876 268.098 88.1684C267.14 88.6491 266.438 89.4766 266.147 90.4688L258.457 116.657C258.165 117.649 258.309 118.725 258.855 119.647C259.401 120.569 260.305 121.263 261.368 121.575L305.479 134.529C306.543 134.841 307.679 134.747 308.637 134.266C309.595 133.785 310.297 132.958 310.588 131.965L318.278 105.778C318.57 104.785 318.427 103.71 317.88 102.787C317.334 101.865 316.43 101.171 315.367 100.859ZM306.578 130.788L262.467 117.834L270.157 91.6464L314.268 104.6L306.578 130.788ZM307.841 141.318C307.696 141.814 307.345 142.228 306.866 142.468C306.387 142.709 305.819 142.756 305.287 142.6L257.166 128.469C256.634 128.313 256.182 127.966 255.909 127.505C255.636 127.043 255.565 126.506 255.71 126.009C255.856 125.513 256.207 125.1 256.686 124.859C257.165 124.619 257.733 124.572 258.265 124.728L306.386 138.859C306.917 139.015 307.37 139.362 307.643 139.823C307.916 140.284 307.987 140.822 307.841 141.318Z" fill="#1B52FF"/>
</g>
<circle opacity="0.5" cx="191.069" cy="234.981" r="20.0692" fill="url(#paint8_radial_268_925)"/>
<circle opacity="0.4" cx="468.153" cy="163.768" r="13.5952" fill="url(#paint9_radial_268_925)"/>
<circle opacity="0.5" cx="234.262" cy="63.2389" r="7.76871" transform="rotate(171.067 234.262 63.2389)" fill="url(#paint10_radial_268_925)"/>
<circle opacity="0.5" cx="518.253" cy="345.584" r="20.2459" transform="rotate(171.067 518.253 345.584)" fill="url(#paint11_radial_268_925)"/>
<g filter="url(#filter0_i_268_925)">
<path fill-rule="evenodd" clip-rule="evenodd" d="M414.588 105.874C417.68 99.466 425.382 96.7778 431.79 99.8699C438.198 102.962 440.886 110.663 437.794 117.072L411.328 171.92C410.848 172.915 409.652 173.332 408.658 172.852L389.054 163.393C388.059 162.913 387.642 161.717 388.122 160.723L414.588 105.874ZM428.993 117.873C426.992 122.02 423.231 124.349 420.592 123.076C417.954 121.803 417.437 117.409 419.437 113.263C421.438 109.116 425.199 106.787 427.838 108.06C430.476 109.333 430.994 113.727 428.993 117.873ZM344.084 165.114L429.719 210.451C431.965 203.63 434.105 195.427 431.074 193.154C426.224 189.516 380.832 166.258 359.107 155.396C356.329 154.891 347.115 158.445 344.084 165.114ZM429.719 218.92L338.021 170.419C326.654 179.008 297.099 195.579 269.817 193.154C267.543 197.954 263.906 210.432 267.543 221.952C272.343 224.983 286.337 230.439 303.919 228.014C298.362 231.803 283.761 237.866 269.817 231.803C271.08 239.634 275.879 257.266 284.973 265.148C296.593 264.137 323.926 258.479 340.295 243.929C333.475 253.023 315.287 273.029 297.099 280.305C307.203 292.43 338.325 316.074 381.976 313.649C388.796 307.586 403.65 292.43 408.5 280.305C406.732 287.63 401.073 304.555 392.585 313.649C399.406 312.891 414.259 310.315 419.109 306.071C426.94 291.925 440.026 254.69 429.719 218.92Z" fill="#1B52FF"/>
</g>
</g>
<defs>
<filter id="filter0_i_268_925" x="266" y="94.5868" width="173.077" height="219.235" filterUnits="userSpaceOnUse" color-interpolation-filters="sRGB">
<feFlood flood-opacity="0" result="BackgroundImageFix"/>
<feBlend mode="normal" in="SourceGraphic" in2="BackgroundImageFix" result="shape"/>
<feColorMatrix in="SourceAlpha" type="matrix" values="0 0 0 0 0 0 0 0 0 0 0 0 0 0 0 0 0 0 127 0" result="hardAlpha"/>
<feOffset dy="-4"/>
<feGaussianBlur stdDeviation="15"/>
<feComposite in2="hardAlpha" operator="arithmetic" k2="-1" k3="1"/>
<feColorMatrix type="matrix" values="0 0 0 0 0.0627451 0 0 0 0 0.631373 0 0 0 0 1 0 0 0 0.4 0"/>
<feBlend mode="normal" in2="shape" result="effect1_innerShadow_268_925"/>
</filter>
<radialGradient id="paint0_radial_268_925" cx="0" cy="0" r="1" gradientUnits="userSpaceOnUse" gradientTransform="translate(380.812 56.6836) rotate(90) scale(36.0907)">
<stop stop-color="white" stop-opacity="0"/>
<stop offset="0.744792" stop-color="#1B52FF"/>
<stop offset="1" stop-color="#1B52FF" stop-opacity="0.7"/>
</radialGradient>
<radialGradient id="paint1_radial_268_925" cx="0" cy="0" r="1" gradientUnits="userSpaceOnUse" gradientTransform="translate(420.258 299.732) rotate(90) scale(18.6993)">
<stop stop-color="white" stop-opacity="0"/>
<stop offset="0.744792" stop-color="#1B52FF"/>
<stop offset="1" stop-color="#1B52FF" stop-opacity="0.7"/>
</radialGradient>
<radialGradient id="paint2_radial_268_925" cx="0" cy="0" r="1" gradientUnits="userSpaceOnUse" gradientTransform="translate(269.037 22.9164) rotate(90) scale(11.0057)">
<stop stop-color="white" stop-opacity="0"/>
<stop offset="0.744792" stop-color="#1B52FF"/>
<stop offset="1" stop-color="#1B52FF" stop-opacity="0.7"/>
</radialGradient>
<radialGradient id="paint3_radial_268_925" cx="0" cy="0" r="1" gradientUnits="userSpaceOnUse" gradientTransform="translate(269.961 298.336) rotate(90) scale(12.9478)">
<stop stop-color="white" stop-opacity="0"/>
<stop offset="0.744792" stop-color="#1B52FF"/>
<stop offset="1" stop-color="#1B52FF" stop-opacity="0.7"/>
</radialGradient>
<radialGradient id="paint4_radial_268_925" cx="0" cy="0" r="1" gradientUnits="userSpaceOnUse" gradientTransform="translate(422.029 46.4296) rotate(90) scale(20.2482)">
<stop stop-color="white" stop-opacity="0"/>
<stop offset="0.744792" stop-color="#1B52FF"/>
<stop offset="1" stop-color="#1B52FF" stop-opacity="0.7"/>
</radialGradient>
<radialGradient id="paint5_radial_268_925" cx="0" cy="0" r="1" gradientUnits="userSpaceOnUse" gradientTransform="translate(27.5185 27.5185) rotate(90) scale(27.5185)">
<stop stop-color="white" stop-opacity="0"/>
<stop offset="0.744792" stop-color="#1B52FF"/>
<stop offset="1" stop-color="#1B52FF" stop-opacity="0.7"/>
</radialGradient>
<radialGradient id="paint6_radial_268_925" cx="0" cy="0" r="1" gradientUnits="userSpaceOnUse" gradientTransform="translate(8.39162 8.39162) rotate(90) scale(8.39162)">
<stop stop-color="white" stop-opacity="0"/>
<stop offset="0.744792" stop-color="#1B52FF"/>
<stop offset="1" stop-color="#1B52FF" stop-opacity="0.7"/>
</radialGradient>
<radialGradient id="paint7_radial_268_925" cx="0" cy="0" r="1" gradientUnits="userSpaceOnUse" gradientTransform="translate(15.4389 15.4389) rotate(90) scale(15.4389)">
<stop stop-color="white" stop-opacity="0"/>
<stop offset="0.744792" stop-color="#1B52FF"/>
<stop offset="1" stop-color="#1B52FF" stop-opacity="0.7"/>
</radialGradient>
<radialGradient id="paint8_radial_268_925" cx="0" cy="0" r="1" gradientUnits="userSpaceOnUse" gradientTransform="translate(191.069 234.981) rotate(90) scale(20.0692)">
<stop stop-color="white" stop-opacity="0"/>
<stop offset="0.744792" stop-color="#1B52FF"/>
<stop offset="1" stop-color="#1B52FF" stop-opacity="0.7"/>
</radialGradient>
<radialGradient id="paint9_radial_268_925" cx="0" cy="0" r="1" gradientUnits="userSpaceOnUse" gradientTransform="translate(468.153 163.768) rotate(90) scale(13.5952)">
<stop stop-color="white" stop-opacity="0"/>
<stop offset="0.744792" stop-color="#1B52FF"/>
<stop offset="1" stop-color="#1B52FF" stop-opacity="0.7"/>
</radialGradient>
<radialGradient id="paint10_radial_268_925" cx="0" cy="0" r="1" gradientUnits="userSpaceOnUse" gradientTransform="translate(234.262 63.2389) rotate(90) scale(7.76871)">
<stop stop-color="white" stop-opacity="0"/>
<stop offset="0.744792" stop-color="#1B52FF"/>
<stop offset="1" stop-color="#1B52FF" stop-opacity="0.7"/>
</radialGradient>
<radialGradient id="paint11_radial_268_925" cx="0" cy="0" r="1" gradientUnits="userSpaceOnUse" gradientTransform="translate(518.253 345.584) rotate(90) scale(20.2459)">
<stop stop-color="white" stop-opacity="0"/>
<stop offset="0.744792" stop-color="white" stop-opacity="0.7"/>
<stop offset="1" stop-color="white" stop-opacity="0.7"/>
</radialGradient>
<clipPath id="clip0_268_925">
<rect width="102.288" height="102.288" fill="white" transform="translate(192.422 167.957) rotate(-20.4313)"/>
</clipPath>
<clipPath id="clip1_268_925">
<rect width="40.8032" height="40.8032" fill="white" transform="translate(186.831 127.998) rotate(-36.5367)"/>
</clipPath>
</defs>
</svg>
