<svg width="66" height="106" viewBox="0 0 66 106" fill="none" xmlns="http://www.w3.org/2000/svg">
  <mask id="mask0_254_877" style="mask-type:alpha" maskUnits="userSpaceOnUse" x="0" y="0" width="66" height="106">
    <rect width="66" height="106" fill="#D9D9D9" />
  </mask>
  <g mask="url(#mask0_254_877)">
    <path fill-rule="evenodd" clip-rule="evenodd" d="M39.0248 3.9624C39.0248 3.9624 30.6659 7.11472 29.3599 11.5805C28.0538 16.0463 29.0987 22.8763 29.0987 22.8763C29.0987 22.8763 27.2702 26.554 25.7029 31.5452C24.3968 29.1809 23.8744 26.0286 23.8744 26.0286C23.8744 26.0286 24.3968 24.1898 24.3968 18.9359C24.3968 13.682 18.3889 10.267 18.3889 10.267C12.381 24.1898 22.3071 26.2913 22.3071 26.2913L25.1805 33.1213C24.1356 37.0617 23.0908 41.2648 23.0908 45.7306V46.7814L21.001 44.1545C21.001 44.1545 22.5683 41.0021 18.6501 37.5871C14.4707 34.1721 10.0301 32.3333 10.0301 32.3333C10.0301 32.3333 8.724 40.7394 12.381 44.6798C16.038 48.8829 19.9562 45.4679 19.9562 45.4679L23.0908 48.8829C23.352 54.6622 24.3968 58.3399 26.7477 63.3311L23.352 62.2803C23.352 62.2803 23.0908 56.7637 17.8665 54.9249C12.6422 52.8233 6.89551 54.3995 6.89551 54.3995C6.89551 54.3995 9.24643 63.5938 14.9931 65.958C20.7398 68.3222 23.352 64.3818 23.352 64.3818L27.7926 65.6953C29.8823 69.373 32.4944 72.788 35.8902 76.4657L37.1963 77.7792C35.629 77.7792 33.5393 78.0419 33.5393 78.0419C33.5393 78.0419 31.7108 73.3134 25.9641 73.5761C20.2174 73.8388 15.2543 78.3046 15.2543 78.3046C15.2543 78.3046 19.1725 84.0838 26.2253 84.3465C33.2781 84.6092 33.8005 80.1434 33.8005 80.1434L38.7636 79.3553C42.6818 82.7703 47.1224 85.66 51.3018 87.4988L48.4285 88.2869C48.4285 88.2869 44.5103 84.8719 38.7636 86.4481C33.0169 88.0242 29.3599 91.7019 29.3599 91.7019C29.3599 91.7019 35.629 98.2692 42.1593 96.4304C48.6897 94.8542 49.9958 89.8631 49.9958 89.8631L53.3915 88.5496C57.5709 90.3885 61.2279 91.7019 63.3176 92.49C65.4074 93.2781 67.7583 94.3288 69.848 95.3796C68.5419 96.1677 67.4971 96.6931 67.2359 97.2185C66.191 99.32 68.2807 100.633 69.0643 99.32C69.3256 98.7946 70.6316 97.7439 72.7213 96.6931C74.5498 97.7439 75.8559 98.7946 76.3783 99.32C77.162 100.633 79.2517 99.0573 78.2068 97.2185C77.9456 96.6931 76.9008 96.1677 75.5947 95.3796C77.6844 94.3288 80.0353 93.2781 82.125 92.49C84.2147 91.7019 87.8717 90.3885 92.0511 88.5496L95.4469 89.8631C95.4469 89.8631 96.753 94.8542 103.283 96.4304C109.814 98.0066 116.083 91.7019 116.083 91.7019C116.083 91.7019 112.426 88.0242 106.679 86.4481C100.932 84.8719 97.0142 88.2869 97.0142 88.2869L94.1408 87.4988C98.3203 85.3973 102.761 82.7703 106.679 79.3553L111.642 80.1434C111.642 80.1434 112.165 84.6092 119.217 84.3465C126.27 84.0838 130.188 78.3046 130.188 78.3046C130.188 78.3046 125.225 73.8388 119.479 73.5761C113.732 73.3134 111.903 78.0419 111.903 78.0419C111.903 78.0419 109.814 77.7792 108.246 77.7792L109.552 76.4657C112.948 72.788 115.56 69.373 117.65 65.6953L122.091 64.3818C122.091 64.3818 124.703 68.5849 130.45 65.958C136.196 63.5938 138.547 54.3995 138.547 54.3995C138.547 54.3995 132.8 53.086 127.576 54.9249C122.352 57.0264 122.091 62.2803 122.091 62.2803L118.695 63.3311C121.046 58.0772 122.091 54.6622 122.352 48.8829L125.486 45.4679C125.486 45.4679 129.143 48.8829 133.062 44.6798C136.719 40.4768 135.413 32.3333 135.413 32.3333C135.413 32.3333 130.972 33.9094 126.793 37.5871C122.613 41.0021 124.442 44.1545 124.442 44.1545L122.352 46.7814C122.352 46.5187 122.352 45.9933 122.352 45.7306C122.352 41.2648 121.307 36.799 120.262 33.1213L123.136 26.2913C123.136 26.2913 133.062 23.9271 127.054 10.267C127.054 10.267 121.046 13.682 121.046 18.9359C121.046 24.1898 121.568 26.0286 121.568 26.0286C121.568 26.0286 120.785 28.9183 119.74 31.5452C118.173 26.554 116.344 22.8763 116.344 22.8763C116.344 22.8763 117.65 16.309 116.083 11.5805C114.777 7.11472 106.418 3.9624 106.418 3.9624C99.3651 21.8255 114.516 23.139 115.299 24.1898C115.822 24.7152 116.866 28.1302 118.173 32.3333L114.777 31.0198C114.777 31.0198 115.038 26.0286 108.246 25.5032C101.194 24.9779 101.194 25.5032 101.194 25.5032C101.194 25.5032 103.545 31.8079 108.246 33.1213C112.948 34.4348 114.777 32.8587 114.777 32.8587L118.956 34.1721C119.74 37.5871 120.785 41.0021 121.046 44.4171C121.307 46.256 121.307 47.8322 121.307 49.4083V51.2472C121.307 52.8233 121.046 54.1368 120.523 55.713C120.262 55.1876 119.479 54.1368 118.434 53.086C116.866 51.5099 116.866 50.9845 116.866 50.9845C116.866 50.9845 116.605 48.3575 115.038 42.841C113.471 37.3244 104.067 37.8498 104.067 37.8498C104.851 50.1964 105.634 48.3575 115.822 52.8233L120.001 56.7637C119.217 59.128 118.173 61.4922 116.344 64.9072L115.299 66.7461C115.038 67.2715 114.516 68.0595 114.254 68.8476V69.1103L111.642 63.3311C111.642 63.3311 112.687 62.543 111.903 57.8145C111.12 53.3487 103.545 51.7726 103.545 51.7726C100.671 66.7461 110.336 64.6445 110.336 64.6445L112.948 70.6865C110.336 74.8896 106.679 78.0419 103.022 80.6688V77.5165C103.022 77.5165 106.679 74.8896 105.634 70.1611C104.589 65.4326 98.0591 61.2295 98.0591 61.2295C98.0591 61.2295 94.4021 65.4326 95.4469 71.2119C96.2306 76.9911 101.194 77.7792 101.194 77.7792V81.9823C96.753 84.8719 92.3124 86.7107 89.439 88.0242C89.7002 87.2361 90.2226 85.3973 90.2226 85.3973C90.2226 85.3973 93.096 84.6092 93.3572 80.1434C93.8796 75.6776 90.4839 73.0507 90.4839 73.0507C90.4839 73.0507 88.1329 74.1015 87.0881 78.3046C86.0432 82.5077 88.3941 85.1346 88.3941 85.1346L87.8717 88.8123C87.6105 89.075 87.0881 89.075 86.8269 89.3377C83.6923 90.6511 77.4232 93.0154 72.7213 95.1169C68.2807 93.0154 62.0116 90.6511 58.6158 89.3377C58.3546 89.3377 58.0934 89.075 57.5709 88.8123L57.0485 85.1346C57.0485 85.1346 59.3994 82.5077 58.3546 78.3046C57.3097 74.1015 54.9588 73.0507 54.9588 73.0507C54.9588 73.0507 51.8242 75.6776 52.0855 80.1434C52.6079 84.6092 55.22 85.3973 55.22 85.3973C55.22 85.3973 56.0037 87.2361 56.0037 88.0242C52.8691 86.7107 48.6897 84.8719 44.2491 81.9823V77.7792C44.2491 77.7792 48.9509 76.9911 49.9958 71.2119C50.7794 65.4326 47.3836 61.2295 47.3836 61.2295C47.3836 61.2295 40.8533 65.4326 39.8084 70.1611C38.7636 74.8896 42.4206 77.5165 42.4206 77.5165V80.6688C38.7636 78.0419 35.1066 74.8896 32.4944 70.6865L35.1066 64.6445C35.1066 64.6445 44.7715 66.7461 41.8981 51.7726C41.8981 51.7726 34.3229 53.3487 33.5393 57.8145C32.7557 62.2803 33.8005 63.3311 33.8005 63.3311L31.1884 69.1103C31.1884 69.1103 31.1884 69.1103 31.1884 68.8476C30.6659 68.0595 30.4047 67.5341 30.1435 66.7461L29.0987 64.9072C27.2702 61.7549 26.2253 59.128 25.4417 56.7637L29.6211 52.8233C40.0696 48.6202 40.5921 50.1964 41.3757 37.8498C41.3757 37.8498 32.2332 37.3244 30.4047 42.841C28.8375 48.3575 28.5762 50.9845 28.5762 50.9845C28.5762 50.9845 28.5762 51.2472 27.009 53.086C25.9641 54.1368 25.1805 55.1876 24.9192 55.713C24.3968 54.1368 24.3968 52.5606 24.1356 51.2472V49.4083C24.1356 47.8322 24.3968 46.256 24.3968 44.4171C24.658 41.2648 25.7029 37.5871 26.4865 34.1721L30.6659 32.8587C30.6659 32.8587 32.7557 34.4348 37.1963 33.1213C41.8981 31.8079 44.2491 25.5032 44.2491 25.5032C44.2491 25.5032 43.9878 24.9779 37.1963 25.5032C30.1435 26.0286 30.6659 31.0198 30.6659 31.0198L27.2702 32.3333C28.5762 28.1302 29.8823 24.7152 30.1435 24.1898C30.9272 23.139 46.0775 21.5628 39.0248 3.9624Z" fill="#FFC005" />
  </g>
</svg>
