<svg width="88" height="88" viewBox="0 0 88 88" fill="none" xmlns="http://www.w3.org/2000/svg">
  <path d="M84.6688 15.4315L84.6318 32.1581C84.5763 53.122 73.4005 72.476 55.2676 82.9857L48.3105 87.0008C47.1633 87.667 45.8866 88 44.6099 88C43.3332 88 42.0565 87.667 40.9093 87.0008L33.9522 82.9857C15.8193 72.476 4.64357 53.122 4.58806 32.1581L4.55106 15.4315C4.53256 13.3591 5.4392 11.4348 6.93794 10.1211C7.62255 9.51051 8.45518 9.02944 9.36182 8.71489L26.3105 2.99748C38.1709 -0.999159 51.049 -0.999159 62.9093 2.99748L79.858 8.71489C80.7647 9.02944 81.5788 9.51051 82.2634 10.1211H82.2819C83.7807 11.4348 84.6873 13.3591 84.6688 15.4315Z" fill="#2979FF" />
  <path d="M75.4175 16.9857L75.3805 32.1211C75.325 49.7359 65.8515 66.1665 50.6236 74.9925L44.6101 78.471L38.5782 74.974C23.3688 66.1665 13.8952 49.7359 13.8397 32.1211L13.8027 16.9857V16.9672L28.6606 11.9714C39.0037 8.47437 50.2165 8.47437 60.5597 11.9714L75.4175 16.9857Z" fill="#10A5FF" />
  <path d="M75.3805 32.1211C75.325 49.7359 65.8515 66.1665 50.6236 74.9924L44.6101 78.471L38.5782 74.9739C23.3688 66.1665 13.8952 49.7359 13.8397 32.1211L13.812 20.6641L13.8027 20.6678V20.6863L13.8397 35.8217C13.8952 53.4365 23.3688 69.8671 38.5782 78.6745L44.6101 82.1716L50.6236 78.693C65.8515 69.8671 75.325 53.4365 75.3805 35.8217L75.4175 20.6863L75.4083 20.6826L75.3805 32.1211Z" fill="#0D47A1" />
  <path d="M44.6101 37.0687C42.2473 37.0687 40.3322 35.1388 40.3322 32.776C40.3322 32.3708 40.3877 31.9933 40.5135 31.5733C41.0316 29.7693 42.708 28.4981 44.6101 28.4981C46.5122 28.4981 48.1904 29.7711 48.7067 31.5733C49.197 33.2941 50.9862 34.2858 52.7051 33.7826C54.4111 33.2941 55.4029 31.5178 54.9144 29.797C53.9078 26.3018 51.1953 23.617 47.8389 22.5679V20.862C47.8389 19.0857 46.3993 17.6313 44.6083 17.6313C42.8172 17.6313 41.3776 19.0857 41.3776 20.862V22.5679C38.036 23.617 35.3087 26.3018 34.3169 29.7693C34.0227 30.7481 33.8691 31.7546 33.8691 32.776C33.8691 38.7043 38.6929 43.5281 44.6083 43.5281C46.9711 43.5281 48.8861 45.4431 48.8861 47.8059C48.8861 48.2112 48.8306 48.6164 48.7048 49.0216C48.1867 50.8256 46.5104 52.0968 44.6083 52.0968C42.7061 52.0968 41.0279 50.8238 40.5117 49.0216C40.0214 47.3008 38.2321 46.3091 36.5132 46.8123C34.8072 47.3008 33.8155 49.0771 34.304 50.7979C35.3105 54.2931 38.0231 56.9779 41.3795 58.027V58.0418V59.7329C41.3795 61.5092 42.819 62.9636 44.6101 62.9636C46.4012 62.9636 47.8407 61.5092 47.8407 59.7329V58.0418V58.027C51.1823 56.9779 53.9097 54.2931 54.9014 50.8256C55.1956 49.8468 55.3492 48.8255 55.3492 47.8059C55.3492 41.8795 50.5236 37.0687 44.6101 37.0687Z" fill="#0D47A1" />
</svg>
