<svg width="36" height="36" viewBox="0 0 36 36" fill="none" xmlns="http://www.w3.org/2000/svg">
<circle cx="18" cy="18" r="18" fill="url(#paint0_linear_116_576)"/>
<path d="M10.3383 12.3333L13.8375 14.6666L17.3258 9.78329C17.4029 9.67522 17.5046 9.5871 17.6225 9.52628C17.7405 9.46545 17.8712 9.43368 18.004 9.43359C18.1367 9.43351 18.2675 9.46513 18.3855 9.52581C18.5035 9.58649 18.6053 9.67448 18.6825 9.78246L22.1708 14.6666L25.6708 12.3341C25.8033 12.246 25.9582 12.1976 26.1173 12.1947C26.2764 12.1918 26.4329 12.2346 26.5685 12.3178C26.7041 12.4011 26.813 12.5214 26.8824 12.6646C26.9517 12.8077 26.9787 12.9678 26.96 13.1258L25.5917 24.7633C25.5678 24.966 25.4703 25.1529 25.3178 25.2885C25.1653 25.4242 24.9683 25.4991 24.7642 25.4991H11.245C11.0409 25.4991 10.8439 25.4242 10.6914 25.2885C10.5388 25.1529 10.4414 24.966 10.4175 24.7633L9.04833 13.1241C9.0297 12.9661 9.05672 12.806 9.1262 12.6628C9.19568 12.5196 9.30471 12.3993 9.44039 12.3161C9.57608 12.2329 9.73275 12.1903 9.89187 12.1934C10.051 12.1964 10.2059 12.245 10.3383 12.3333ZM18.005 20.5C18.447 20.5 18.871 20.3244 19.1835 20.0118C19.4961 19.6992 19.6717 19.2753 19.6717 18.8333C19.6717 18.3913 19.4961 17.9673 19.1835 17.6548C18.871 17.3422 18.447 17.1666 18.005 17.1666C17.563 17.1666 17.139 17.3422 16.8265 17.6548C16.5139 17.9673 16.3383 18.3913 16.3383 18.8333C16.3383 19.2753 16.5139 19.6992 16.8265 20.0118C17.139 20.3244 17.563 20.5 18.005 20.5Z" fill="white"/>
<defs>
<linearGradient id="paint0_linear_116_576" x1="-6.70552e-08" y1="18" x2="36" y2="18" gradientUnits="userSpaceOnUse">
<stop stop-color="#0FA8FF"/>
<stop offset="1" stop-color="#1B4EFF"/>
</linearGradient>
</defs>
</svg>
