<svg width="146" height="146" viewBox="0 0 146 146" fill="none" xmlns="http://www.w3.org/2000/svg">
<path fill-rule="evenodd" clip-rule="evenodd" d="M105.593 64.8103C105.593 66.6553 104.09 68.1552 102.245 68.1552H100.058C99.2712 68.1552 98.6324 68.7939 98.6324 69.5809C98.6324 70.368 99.2712 71.0067 100.058 71.0067C101.903 71.0067 103.406 72.5067 103.406 74.3516C103.406 76.1966 101.903 77.6965 100.058 77.6965H97.4063C96.6164 77.6965 95.9805 78.3353 95.9805 79.1223C95.9805 79.9093 96.6164 80.5481 97.4063 80.5481C99.2512 80.5481 100.751 82.0508 100.751 83.8958C100.751 85.7379 99.2512 87.2407 97.4063 87.2407H94.9853C94.1983 87.2407 93.5595 87.8794 93.5595 88.6665C93.5595 89.4535 94.1983 90.0922 94.9853 90.0922C96.8302 90.0922 98.3302 91.5922 98.3302 93.4371C98.3302 95.2821 96.8302 96.782 94.9853 96.782H72.7345C68.4886 96.782 64.4793 96.782 62.4147 93.1292V64.6078C62.4147 64.066 62.3349 63.5442 62.2009 63.0423C63.6723 60.7354 65.1865 59.4208 66.7833 58.0378C67.3907 57.5103 68.0209 56.9628 68.6625 56.3526C71.3886 53.7462 74.5595 47.4614 74.7249 42.9502C74.7791 41.4731 75.1299 38.9324 76.8722 38.5217C77.5708 38.3563 78.2409 38.5046 78.9196 38.978C80.2342 39.8962 81.3263 41.9436 81.5744 43.9597C81.8453 46.1668 81.4261 47.6667 80.9841 49.2579C80.3168 51.6532 79.6325 54.1169 81.4261 58.3486C80.9955 58.1148 80.6134 57.7127 80.2912 57.1567C79.8977 56.4752 79.0251 56.2413 78.3436 56.6349C77.662 57.0284 77.4282 57.901 77.8217 58.5825C78.469 59.7031 79.3131 60.513 80.3311 60.9892C81.5288 61.5481 82.5895 61.4626 83.8499 61.4626H102.245C104.09 61.4626 105.593 62.9653 105.593 64.8103ZM84.6997 58.611C82.5154 54.3935 83.0544 52.4545 83.733 50.0221C84.2064 48.3168 84.7453 46.3835 84.406 43.6118C84.0552 40.7631 82.5411 38.0256 80.5478 36.6397C79.2047 35.7044 77.7077 35.3936 76.2163 35.7472C74.6793 36.1093 72.073 37.5151 71.8762 42.8476C71.7393 46.5717 68.9277 52.1522 66.6921 54.2909C66.1018 54.8526 65.4973 55.3773 64.9156 55.882C63.5012 57.1082 62.0497 58.3686 60.6211 60.3105C59.5261 59.2241 58.0176 58.5511 56.3552 58.5511H50.518C47.1788 58.5511 44.4613 61.2687 44.4613 64.6078V93.5797C44.4613 96.9189 47.1788 99.6364 50.518 99.6364H56.3552C58.568 99.6364 60.5013 98.4416 61.5593 96.6651C64.6047 99.6307 69.0446 99.6336 72.7345 99.6336H94.9853C98.4015 99.6336 101.182 96.8533 101.182 93.4371C101.182 91.9857 100.68 90.6483 99.8415 89.5932C102.051 88.6437 103.603 86.4479 103.603 83.8958C103.603 82.4757 103.124 81.1669 102.32 80.1232C104.624 79.2164 106.258 76.9722 106.258 74.3516C106.258 72.866 105.73 71.5001 104.855 70.4307C106.973 69.4441 108.445 67.294 108.445 64.8103C108.445 61.3913 105.664 58.611 102.245 58.611H84.6997ZM72.9997 119.324C98.544 119.324 119.326 98.5443 119.326 73C119.326 47.4557 98.544 26.6735 72.9997 26.6735C47.4583 26.6735 26.6761 47.4557 26.6761 73C26.6761 98.5443 47.4583 119.324 72.9997 119.324ZM139.467 64.3455L136.182 60.801C133.895 58.3344 133.051 55.172 133.804 51.8927L134.87 47.2589C136.353 40.8087 132.56 34.2244 126.236 32.2711L121.619 30.8453C118.405 29.853 116.09 27.5347 115.103 24.3181L113.711 19.7727C111.77 13.4451 105.194 9.63826 98.7408 11.1097L94.0272 12.1847C90.7479 12.9318 87.5855 12.082 85.1246 9.78939L81.6428 6.55001C76.798 2.03884 69.1986 2.03314 64.3452 6.53291L60.8036 9.81791C58.337 12.1049 55.1718 12.9489 51.8953 12.1961L47.2587 11.1296C40.8084 9.64681 34.2242 13.4394 32.2737 19.7642L30.8479 24.3808C29.8527 27.5974 27.5373 29.91 24.3207 30.8967L19.7753 32.2911C13.4448 34.2301 9.64087 40.8058 11.1123 47.2618L12.1845 51.9726C12.9316 55.2519 12.0818 58.4142 9.78915 60.878L6.54977 64.3569C2.0386 69.2017 2.0329 76.8011 6.53266 81.6545L9.82051 85.1961C12.1075 87.6656 12.9515 90.8279 12.1959 94.1072L11.1322 98.741C9.64942 105.191 13.442 111.776 19.7668 113.729L24.3834 115.155C27.5972 116.147 29.9098 118.462 30.8964 121.679L32.2908 126.227C34.2327 132.555 40.8084 136.362 47.2615 134.89L51.9752 133.815C55.2545 133.068 58.414 133.918 60.8777 136.211L64.3595 139.45C66.7833 141.708 69.9001 142.838 73.0168 142.838C76.1222 142.838 79.2304 141.714 81.6542 139.467L85.1987 136.182C87.6653 133.892 90.8277 133.048 94.107 133.804L98.7408 134.867C99.6847 135.084 100.629 135.19 101.564 135.19C107.019 135.19 112.06 131.634 113.729 126.236L115.154 121.616C116.147 118.403 118.465 116.09 121.682 115.103L126.227 113.709C132.555 111.77 136.361 105.191 134.89 98.7382L133.815 94.0274C133.068 90.7481 133.921 87.5857 136.21 85.122L139.453 81.6431C143.961 76.7954 143.969 69.1988 139.467 64.3455Z" fill="url(#paint0_linear_233_1550)"/>
<defs>
<linearGradient id="paint0_linear_233_1550" x1="3.16211" y1="73" x2="142.839" y2="73" gradientUnits="userSpaceOnUse">
<stop stop-color="#0FA8FF"/>
<stop offset="1" stop-color="#1B4EFF"/>
</linearGradient>
</defs>
</svg>
