<svg width="150" height="150" viewBox="0 0 150 150" fill="none" xmlns="http://www.w3.org/2000/svg">
  <path d="M120.703 0H29.2969C13.1162 0 0 13.1162 0 29.2969V120.703C0 136.884 13.1162 150 29.2969 150H120.703C136.884 150 150 136.884 150 120.703V29.2969C150 13.1162 136.884 0 120.703 0ZM29.1357 35.0039C28.5527 34.4561 28.1016 33.7676 27.8262 32.9941C26.6338 29.6045 29.2646 26.0801 32.8535 26.2793C36.126 26.4639 40.0693 26.2207 43.9688 24.8467C47.8711 23.4727 51.0938 21.1904 53.5283 18.9961C56.2002 16.5879 60.457 17.6836 61.6523 21.0732C62.2002 22.626 61.9629 24.3516 60.999 25.6846C59.1006 28.3066 55.0811 32.5049 47.5986 35.1416C40.1133 37.7783 34.3506 37.0283 31.2275 36.1758C30.4336 35.959 29.7188 35.5518 29.1357 35.0039ZM30.7676 59.4316C30.7676 49.5381 38.7861 41.5195 48.6768 41.5195C58.5674 41.5195 66.5859 49.5381 66.5859 59.4316C66.5859 69.3252 58.5674 77.3408 48.6768 77.3408C38.7861 77.3408 30.7676 69.3223 30.7676 59.4316ZM91.8311 100.556C89.9824 100.178 85.4355 95.9062 74.9912 95.9062C64.5469 95.9062 59.9971 100.178 58.1514 100.556C56.3027 100.934 54.7939 100.011 54.9463 97.8164C55.1191 95.3701 61.0459 86.9092 74.9912 86.9092C88.9365 86.9092 94.8633 95.3701 95.0332 97.8164C95.1855 100.011 93.6797 100.934 91.8311 100.556ZM101.323 77.3408C91.4326 77.3408 83.4141 69.3223 83.4141 59.4316C83.4141 49.541 91.4326 41.5195 101.323 41.5195C111.214 41.5195 119.232 49.5381 119.232 59.4316C119.232 69.3252 111.214 77.3408 101.323 77.3408ZM122.153 32.9941C121.881 33.7676 121.43 34.4561 120.844 35.0039C120.264 35.5518 119.549 35.959 118.755 36.1758C115.629 37.0283 109.869 37.7783 102.384 35.1416C94.8984 32.5049 90.8818 28.3066 88.9805 25.6846C88.0166 24.3516 87.7822 22.626 88.3271 21.0732C89.5225 17.6836 93.7822 16.5879 96.4512 18.9961C98.8857 21.1904 102.111 23.4727 106.011 24.8467C109.913 26.2207 113.854 26.4639 117.129 26.2793C120.718 26.0801 123.349 29.6045 122.153 32.9941ZM112.957 59.4316C112.957 65.8535 107.748 71.0625 101.323 71.0625C94.8984 71.0625 89.6924 65.8535 89.6924 59.4316C89.6924 53.0098 94.8984 47.7979 101.323 47.7979C102.466 47.7979 103.57 47.9619 104.613 48.2725C102.463 49.1836 100.954 51.3164 100.954 53.7979C100.954 57.1143 103.641 59.8008 106.954 59.8008C109.441 59.8008 111.571 58.292 112.482 56.1387C112.793 57.1846 112.957 58.2891 112.957 59.4316ZM60.3076 59.4316C60.3076 65.8535 55.1016 71.0625 48.6768 71.0625C42.252 71.0625 37.043 65.8535 37.043 59.4316C37.043 53.0098 42.252 47.7979 48.6768 47.7979C49.8193 47.7979 50.9238 47.9619 51.9668 48.2725C49.8164 49.1836 48.3076 51.3164 48.3076 53.7979C48.3076 57.1143 50.9941 59.8008 54.3076 59.8008C56.792 59.8008 58.9219 58.292 59.833 56.1387C60.1436 57.1846 60.3076 58.2891 60.3076 59.4316Z" fill="url(#paint0_linear_166_1894)" />
  <defs>
    <linearGradient id="paint0_linear_166_1894" x1="-2.79397e-07" y1="75" x2="150" y2="75" gradientUnits="userSpaceOnUse">
      <stop stop-color="#0FA8FF" />
      <stop offset="1" stop-color="#1B4EFF" />
    </linearGradient>
  </defs>
</svg>
