<?xml version="1.0" encoding="utf-8"?><svg xmlns="http://www.w3.org/2000/svg" xmlns:xlink="http://www.w3.org/1999/xlink"><symbol fill="none" viewBox="0 0 16 9" id="arrow-down" xmlns="http://www.w3.org/2000/svg"><path d="M1.333 1.333 8 8l6.667-6.667" stroke="#0A163E" stroke-width="2" stroke-linecap="round" stroke-linejoin="round"/></symbol><symbol fill="none" viewBox="0 0 32 32" id="arrow-select" xmlns="http://www.w3.org/2000/svg"><path d="M9.334 13.333 16 20l6.667-6.667" stroke="#0A163E" stroke-width="2" stroke-linecap="round" stroke-linejoin="round"/></symbol><symbol fill="none" viewBox="0 0 14 10" id="check" xmlns="http://www.w3.org/2000/svg"><path d="m1 5 4 4 8-8" stroke="#fff" stroke-width="2" stroke-linecap="round" stroke-linejoin="round"/></symbol><symbol fill="none" viewBox="0 0 24 24" id="check-circle" xmlns="http://www.w3.org/2000/svg"><path fill-rule="evenodd" clip-rule="evenodd" d="M12 21a9 9 0 1 0 0-18 9 9 0 0 0 0 18Zm-.232-5.36 5-6-1.536-1.28-4.3 5.159-2.225-2.226-1.414 1.414 3 3 .774.774.701-.841Z" fill="#1B52FF"/></symbol><symbol fill="none" viewBox="0 0 24 24" id="info" xmlns="http://www.w3.org/2000/svg"><path fill-rule="evenodd" clip-rule="evenodd" d="M12 1C5.925 1 1 5.925 1 12s4.925 11 11 11 11-4.925 11-11S18.075 1 12 1Zm-.5 5a1 1 0 1 0 0 2h.5a1 1 0 1 0 0-2h-.5ZM10 10a1 1 0 0 0 0 2h1v3h-1a1 1 0 0 0 0 2h4a1 1 0 0 0 0-2h-1v-4a1 1 0 0 0-1-1h-2Z" fill="#10A5FF"/></symbol><symbol fill="none" viewBox="0 0 24 24" id="lock" xmlns="http://www.w3.org/2000/svg"><path d="M6.616 21c-.445 0-.825-.158-1.141-.475A1.559 1.559 0 0 1 5 19.386v-8.77c0-.444.158-.824.475-1.14A1.563 1.563 0 0 1 6.615 9H8V7c0-1.114.388-2.059 1.165-2.835C9.941 3.388 10.886 3 12 3c1.114 0 2.06.388 2.836 1.165C15.613 4.942 16.001 5.887 16 7v2h1.385c.444 0 .824.158 1.14.475.316.317.474.697.475 1.14v8.77c0 .444-.158.824-.475 1.14a1.56 1.56 0 0 1-1.14.475H6.616ZM12 16.5c.422 0 .777-.145 1.066-.434.29-.289.434-.644.434-1.066 0-.422-.145-.777-.434-1.066A1.454 1.454 0 0 0 12 13.5c-.421 0-.777.144-1.066.434-.29.289-.434.644-.434 1.066 0 .422.145.777.434 1.066.289.29.644.434 1.066.434ZM9 9h6V7c0-.833-.292-1.542-.875-2.125A2.893 2.893 0 0 0 12 4c-.833 0-1.542.292-2.125.875A2.893 2.893 0 0 0 9 7v2Z" fill="var(--color-grey-1)"/></symbol></svg>
