<svg width="122" height="122" viewBox="0 0 122 122" fill="none" xmlns="http://www.w3.org/2000/svg">
  <path d="M94.9631 20.4786C99.7833 20.4786 103.794 16.9437 104.538 12.3301H79.8223C81.0694 14.808 81.8412 17.5642 82.018 20.4786H94.9631Z" fill="#10A5FF" />
  <path d="M65.4932 42.3404L70.9677 57.6679L74.3908 53.5456C74.7933 53.0614 75.4083 52.8069 76.0357 52.8656L81.3698 53.3669L74.1947 38.165C71.6978 40.178 68.7338 41.633 65.4932 42.3402V42.3404Z" fill="#10A5FF" />
  <path d="M40.6311 53.3672L45.9655 52.8658C46.5953 52.8074 47.2081 53.0614 47.6104 53.5459L51.0333 57.6679L56.508 42.3405C53.2674 41.6335 50.3034 40.1783 47.8065 38.1655L40.6309 53.3672H40.6311Z" fill="#10A5FF" />
  <path d="M92.9063 24.291H81.9068C81.6118 26.7491 80.8917 29.0781 79.8223 31.2026H84.5586C88.7023 31.2026 92.1605 28.221 92.906 24.291H92.9063Z" fill="#10A5FF" />
  <path d="M29.0947 24.291C29.8403 28.221 33.2987 31.2026 37.4422 31.2026H42.1785C41.1091 29.0781 40.389 26.7491 40.094 24.291H29.0947Z" fill="#10A5FF" />
  <path d="M25.278 61.0154L20.0287 58.8647C19.8259 58.7815 19.616 58.7422 19.4091 58.7422C18.7631 58.7422 18.1496 59.1263 17.8898 59.7601L6.67514 87.132C6.33249 87.9686 6.73399 88.9279 7.5706 89.2708L12.8202 91.4215C13.6568 91.7642 14.6161 91.3627 14.959 90.5258L26.1737 63.154C26.5163 62.3174 26.1146 61.358 25.278 61.0151V61.0154Z" fill="#10A5FF" />
  <path d="M107.042 90.5261C107.384 91.3629 108.344 91.7637 109.181 91.4218L114.43 89.271C115.267 88.9284 115.668 87.9688 115.326 87.1322L104.111 59.7604C103.946 59.3577 103.632 59.042 103.226 58.8721C103.02 58.786 102.804 58.7427 102.589 58.7427C102.379 58.7427 102.171 58.7834 101.972 58.8647L96.7227 61.0154C96.3201 61.1805 96.0043 61.4948 95.8344 61.9006C95.6645 62.3062 95.6619 62.7513 95.827 63.1542L107.042 90.5261Z" fill="#10A5FF" />
  <path d="M42.1781 12.3301H17.4629C18.207 16.9437 22.2171 20.4786 27.0375 20.4786H39.9826C40.1592 17.5642 40.9307 14.808 42.1781 12.3301Z" fill="#10A5FF" />
  <path d="M61.0003 0.708008C54.4049 0.708008 48.5089 3.75658 44.6447 8.51768H15.4326C14.3799 8.51768 13.5264 9.3712 13.5264 10.4239V10.7802C13.5264 17.6138 18.6273 23.2749 25.2207 24.1656C25.9461 30.267 31.1482 35.0153 37.4419 35.0153H44.6449C44.7357 35.127 44.8277 35.2378 44.9204 35.3477L35.7554 54.7647C35.463 55.3843 35.5254 56.1124 35.9188 56.6734C36.3123 57.234 36.9771 57.5409 37.6578 57.4764L45.32 56.7563L50.2367 62.6771C50.6022 63.1177 51.1419 63.3657 51.7028 63.3657C51.8132 63.3657 51.9242 63.3562 52.035 63.3367C52.7093 63.2175 53.2681 62.7457 53.4985 62.1007L60.387 42.8156C60.5907 42.8216 60.7954 42.8252 61.0006 42.8252C61.2057 42.8252 61.4102 42.8214 61.6141 42.8156L68.5024 62.1007C68.7328 62.7455 69.2916 63.2175 69.9659 63.3367C70.0767 63.3562 70.1877 63.3657 70.2981 63.3657C70.859 63.3657 71.3987 63.1177 71.7642 62.6773L76.6812 56.7563L84.3431 57.4764C85.0246 57.5409 85.6886 57.2338 86.082 56.6734C86.4752 56.1124 86.5377 55.3843 86.2455 54.7647L77.0807 35.3477C77.1737 35.2378 77.2654 35.1273 77.3562 35.0155H84.5592C90.8527 35.0155 96.0551 30.2673 96.7804 24.1658C103.374 23.2754 108.475 17.6143 108.475 10.7804V10.4242C108.475 9.37144 107.621 8.51791 106.569 8.51791H77.3564C73.4925 3.75682 67.5967 0.708246 61.001 0.708246L61.0003 0.708008ZM27.0374 20.4787C22.2172 20.4787 18.2069 16.9438 17.4628 12.3302H42.178C40.9309 14.8081 40.1588 17.5643 39.9823 20.4787H27.0374ZM37.4419 31.2028C33.2982 31.2028 29.8401 28.2212 29.0945 24.2912H40.0938C40.3888 26.7493 41.1089 29.0783 42.1783 31.2028H37.4419ZM51.0328 57.6682L47.6099 53.5462C47.2077 53.0617 46.5946 52.8075 45.965 52.8661L40.6306 53.3675L47.8062 38.1658C50.3032 40.1788 53.2669 41.6338 56.5078 42.3407L51.0328 57.6682ZM81.3696 53.3675L76.0354 52.8661C75.4078 52.8075 74.793 53.0617 74.3905 53.5462L70.9674 57.6684L65.4929 42.341C68.7335 41.634 71.6975 40.1788 74.1944 38.1658L81.3696 53.3675ZM104.537 12.3302C103.793 16.9438 99.7832 20.4787 94.9628 20.4787H82.0177C81.8409 17.5643 81.0693 14.8081 79.8219 12.3302H104.537ZM81.9064 24.2912H92.9059C92.1604 28.2212 88.702 31.2028 84.5585 31.2028H79.8222C80.8916 29.0783 81.6117 26.7493 81.9067 24.2912H81.9064ZM61.0001 39.0122C51.4905 39.0122 43.754 31.2757 43.754 21.7664C43.754 12.257 51.4905 4.52051 61.0001 4.52051C70.5097 4.52051 78.2457 12.257 78.2457 21.7664C78.2457 31.2757 70.5094 39.0122 61.0001 39.0122Z" fill="#1B52FF" />
  <path d="M68.879 13.7087L57.0483 25.5393L52.5457 19.2544C51.9329 18.3985 50.7419 18.2017 49.886 18.8148C49.0301 19.4279 48.8336 20.6188 49.4467 21.4745L55.2579 29.5861C55.5838 30.0412 56.0935 30.33 56.6516 30.3757C56.7037 30.38 56.7559 30.3822 56.8074 30.3822C57.3109 30.3822 57.7963 30.1827 58.1554 29.8239L71.5751 16.4044C72.3195 15.66 72.3195 14.4531 71.5751 13.7087C70.8307 12.9643 69.6238 12.9643 68.879 13.7087Z" fill="#1B52FF" />
  <path d="M106.454 94.9304C107.134 95.2151 107.849 95.3576 108.564 95.3576C109.262 95.3576 109.961 95.2215 110.626 94.9489L115.875 92.7982C118.657 91.6585 119.992 88.4679 118.853 85.6862L107.638 58.3144C107.087 56.9691 106.043 55.9182 104.698 55.3552C103.353 54.7919 101.871 54.785 100.526 55.3366L95.2765 57.4873C92.9032 58.4597 91.5838 60.9245 91.9549 63.3548L89.4705 64.7725C85.9361 66.7901 80.0275 67.2418 75.7262 65.8245C70.9902 64.2636 65.966 64.8304 60.7622 67.5066C55.5631 64.8311 50.533 64.2636 45.7983 65.8245C41.4974 67.2418 35.5882 66.7898 32.0543 64.7725L30.001 63.6007C30.5031 61.0925 29.1758 58.4926 26.7225 57.4873L21.4732 55.3366C20.1281 54.7857 18.6469 54.7919 17.3013 55.3552C15.9565 55.9182 14.9123 56.9691 14.3612 58.3144L3.14648 85.6862C2.00654 88.4682 3.34235 91.6583 6.12404 92.7982L11.3736 94.9489C12.0387 95.2215 12.7368 95.3576 13.4355 95.3576C14.1501 95.3576 14.8652 95.2151 15.5452 94.9304C16.1757 94.6663 16.7366 94.2918 17.2151 93.8333C22.367 96.6693 25.3074 98.8248 29.2812 101.738C30.8955 102.922 32.7255 104.263 34.9218 105.807C43.3219 111.714 52.5253 116.279 56.0921 117.968L60.74 120.168C62.1304 120.957 63.4416 121.292 64.625 121.292C66.9306 121.292 68.7477 120.021 69.7041 118.364C70.0725 117.725 70.3227 117.005 70.4338 116.255C71.0428 116.447 71.6681 116.543 72.2893 116.543C74.4388 116.543 76.5326 115.428 77.6823 113.436C78.2058 112.53 78.4729 111.545 78.5084 110.564C78.78 110.599 79.0538 110.618 79.3286 110.618C79.895 110.618 80.4656 110.543 81.0285 110.392C82.7079 109.942 84.109 108.87 84.9734 107.372C85.5401 106.39 85.8313 105.3 85.8389 104.191C86.1043 104.225 86.3717 104.243 86.6402 104.243C87.2066 104.243 87.7771 104.168 88.3399 104.017C90.0191 103.567 91.4202 102.494 92.2851 100.997C92.8434 100.029 93.1339 98.9206 93.1427 97.8026L104.365 93.3868C104.919 94.0544 105.629 94.5848 106.454 94.9301V94.9304ZM95.8341 61.9003C96.004 61.4945 96.3195 61.1804 96.7224 61.0151L101.972 58.8643C102.17 58.7831 102.379 58.7423 102.588 58.7423C102.804 58.7423 103.02 58.7857 103.226 58.8717C103.631 59.0416 103.945 59.3571 104.111 59.76L115.325 87.1319C115.668 87.9685 115.266 88.9278 114.43 89.2707L109.18 91.4214C108.344 91.7636 107.384 91.3626 107.041 90.5257L95.8267 63.1539C95.6618 62.7512 95.6642 62.3058 95.8341 61.9003ZM14.9583 90.5257C14.6157 91.3626 13.6561 91.7641 12.8195 91.4214L7.56993 89.2707C6.73333 88.928 6.33183 87.9685 6.67447 87.1319L17.8892 59.76C18.1489 59.1262 18.7625 58.7421 19.4085 58.7421C19.6151 58.7421 19.8252 58.7814 20.028 58.8646L25.2773 61.0153C26.1139 61.358 26.5157 62.3175 26.173 63.1541L14.9583 90.526V90.5257ZM88.9832 99.0905C88.6277 99.7067 88.0487 100.148 87.3532 100.335C86.6581 100.521 85.9356 100.428 85.3194 100.072L82.599 98.5017C82.599 98.5017 82.5975 98.5008 82.5968 98.5005L82.5959 98.5L73.2715 93.1166C72.3598 92.5897 71.1936 92.9026 70.6675 93.8142C70.1409 94.7259 70.4535 95.8918 71.3652 96.4182L80.6944 101.805C81.307 102.16 81.7469 102.738 81.933 103.433C82.1196 104.13 82.0271 104.852 81.6721 105.466C81.3166 106.082 80.7378 106.524 80.042 106.71C79.3462 106.897 78.6242 106.804 78.0083 106.448L75.4105 104.948C75.4105 104.948 75.4086 104.947 75.4077 104.947C75.4072 104.947 75.4067 104.946 75.4062 104.946L65.808 99.4043C64.8961 98.8777 63.7302 99.1901 63.2041 100.102C62.6775 101.014 62.9901 102.18 63.9018 102.706L73.5028 108.249C74.6494 108.912 75.0436 110.384 74.3814 111.531C74.0628 112.083 73.5441 112.479 72.9207 112.646C72.2976 112.813 71.6507 112.729 71.0988 112.411L58.9403 105.391C58.0284 104.864 56.8625 105.177 56.3363 106.089C55.8097 107 56.1224 108.166 57.034 108.693L65.5156 113.589C65.5156 113.589 65.5164 113.59 65.5168 113.59C67.0221 114.459 66.7826 115.802 66.4035 116.459C65.8638 117.393 64.5749 117.981 62.5767 116.827C62.5319 116.801 62.4861 116.777 62.4394 116.755L57.7246 114.523C54.2461 112.876 45.2751 108.427 37.1159 102.69C34.9504 101.167 33.1366 99.837 31.5365 98.664C27.4514 95.6693 24.4269 93.4523 19.0854 90.5107L28.6323 67.2092L30.1654 68.0842C34.6828 70.6624 41.6025 71.2228 46.9926 69.4457C50.1003 68.4216 53.3195 68.5653 56.759 69.8822L43.7927 77.9664C42.2701 78.9157 41.3713 80.338 41.2617 81.9717C41.1433 83.7342 41.999 85.599 43.4946 86.8376C48.6301 91.0897 53.3307 88.7929 57.4777 86.7668C60.0068 85.5311 62.622 84.2537 65.4673 84.237H65.5285C68.6305 84.237 71.0593 85.6419 73.8686 87.2675L87.9155 95.3778C88.8043 96.0307 88.988 96.4275 89.2651 97.1411C89.4181 97.8083 89.3173 98.5141 88.9837 99.0915L88.9832 99.0905ZM92.0109 94.1512C91.6015 93.5495 91.007 92.904 90.0679 92.2285C90.0162 92.1913 89.9631 92.1568 89.9078 92.1251L75.777 83.9663C72.7658 82.2242 69.6534 80.4235 65.5283 80.4235C65.5006 80.4235 65.472 80.4235 65.4439 80.4235C61.7289 80.4455 58.5809 81.9833 55.8035 83.3404C51.4418 85.4708 49.0216 86.4637 45.9256 83.9001C45.3742 83.4435 45.0282 82.7709 45.0649 82.2264C45.0744 82.0815 45.1042 81.6405 45.8091 81.2011L60.552 72.0089C65.6157 68.8521 70.1891 68.0131 74.5332 69.445C79.9233 71.2221 86.843 70.6616 91.3603 68.0834L93.278 66.989L102.686 89.9503L92.0106 94.1509L92.0109 94.1512Z" fill="#1B52FF" />
</svg>
